<?xml version="1.0" encoding="UTF-8"?>
<svg width="1071px" height="209px" viewBox="0 0 1071 209" version="1.1" xmlns="http://www.w3.org/2000/svg" xmlns:xlink="http://www.w3.org/1999/xlink">
    <!-- Generator: Sketch 52.5 (67469) - http://www.bohemiancoding.com/sketch -->
    <title>Group 2</title>
    <desc>Created with Sketch.</desc>
    <defs>
        <polygon id="path-1" points="0 0.172448979 185.78145 0.172448979 185.78145 131.651486 0 131.651486"></polygon>
    </defs>
    <g id="Page-1" stroke="none" stroke-width="1" fill="none" fill-rule="evenodd">
        <g id="logo-converted" transform="translate(-430.000000, -196.000000)">
            <g id="Group-2" transform="translate(430.000000, 196.000000)">
                <path d="M208,79.4152139 L208,58.0776545 L228.871795,58.0776545 L228.871795,29 L254.17094,29 L254.17094,58.0776545 L282,58.0776545 L282,79.4152139 L254.17094,79.4152139 L254.17094,123.345483 C254.17094,128.366111 255.119649,132.340714 257.017094,135.269414 C258.914539,138.198113 262.674236,139.662441 268.296296,139.662441 C270.54512,139.662441 273.004735,139.418386 275.675214,138.930269 C278.345692,138.442153 280.453933,137.640259 282,136.524564 L282,157.652932 C279.329521,158.908089 276.061748,159.779712 272.196581,160.267829 C268.331415,160.755945 264.923092,161 261.97151,161 C255.225037,161 249.708473,160.267836 245.421652,158.803487 C241.134831,157.339137 237.761646,155.10778 235.301994,152.10935 C232.842343,149.11092 231.15575,145.380371 230.242165,140.917591 C229.32858,136.454811 228.871795,131.294799 228.871795,125.437401 L228.871795,79.4152139 L208,79.4152139 Z M302,57.5121951 L327.016287,57.5121951 L327.016287,73.4227642 L327.433225,73.4227642 C330.212826,67.5609463 334.173699,63.0250838 339.315961,59.8150407 C344.458223,56.6049975 350.364787,55 357.035831,55 C358.564611,55 360.058625,55.139565 361.517915,55.4186992 C362.977206,55.6978334 364.471219,56.0467459 366,56.4654472 L366,80.75 C363.915299,80.1917316 361.865374,79.7381454 359.850163,79.3892276 C357.834952,79.0403099 355.854516,78.8658537 353.908795,78.8658537 C348.071632,78.8658537 343.381125,79.9474824 339.837134,82.1107724 C336.293142,84.2740623 333.583071,86.7513411 331.70684,89.5426829 C329.83061,92.3340248 328.579808,95.1253248 327.954397,97.9166667 C327.328987,100.708009 327.016287,102.801484 327.016287,104.197154 L327.016287,158 L302,158 L302,57.5121951 Z M384,58 L409,58 L409,158 L384,158 L384,58 Z M381,23 C381,18.9722021 382.489163,15.4652927 385.467532,12.4791667 C388.445902,9.49304063 392.220756,8 396.792208,8 C401.363659,8 405.207777,9.42359688 408.324675,12.2708333 C411.441574,15.1180698 413,18.6944229 413,23 C413,27.3055771 411.441574,30.8819302 408.324675,33.7291667 C405.207777,36.5764031 401.363659,38 396.792208,38 C392.220756,38 388.445902,36.5069594 385.467532,33.5208333 C382.489163,30.5347073 381,27.0277979 381,23 Z M501.418182,145.595238 L500.790909,145.595238 C497.166649,151.343944 492.566695,155.515199 486.990909,158.109127 C481.415124,160.703055 475.281852,162 468.590909,162 C463.990886,162 459.495476,161.369054 455.104545,160.107143 C450.713614,158.845232 446.810623,156.952394 443.395455,154.428571 C439.980286,151.904749 437.227283,148.750019 435.136364,144.964286 C433.045444,141.178553 432,136.76193 432,131.714286 C432,126.246004 432.975748,121.584014 434.927273,117.728175 C436.878798,113.872335 439.492408,110.6475 442.768182,108.053571 C446.043956,105.459643 449.842403,103.391542 454.163636,101.849206 C458.48487,100.306871 462.98028,99.1501361 467.65,98.3789683 C472.31972,97.6078004 477.024219,97.1170645 481.763636,96.906746 C486.503054,96.6964275 490.963615,96.5912698 495.145455,96.5912698 L501.418182,96.5912698 L501.418182,93.8571429 C501.418182,87.5475875 499.257597,82.815492 494.936364,79.6607143 C490.61513,76.5059366 485.109124,74.9285714 478.418182,74.9285714 C473.121186,74.9285714 468.17275,75.8749905 463.572727,77.7678571 C458.972704,79.6607238 455.000017,82.2195606 451.654545,85.4444444 L438.481818,72.1944444 C444.057604,66.4457385 450.574205,62.3095364 458.031818,59.7857143 C465.489431,57.2618921 473.190869,56 481.136364,56 C488.24549,56 494.23937,56.8062089 499.118182,58.4186508 C503.996994,60.0310927 508.039378,62.0991937 511.245455,64.6230159 C514.451531,67.146838 516.925749,70.0562005 518.668182,73.3511905 C520.410615,76.6461805 521.665148,79.9761737 522.431818,83.3412698 C523.198489,86.706366 523.651514,89.9662541 523.790909,93.1210317 C523.930304,96.2758094 524,99.0449616 524,101.428571 L524,159.47619 L501.418182,159.47619 L501.418182,145.595238 Z M500,114 L494.634146,114 C491.056893,114 487.050429,114.141118 482.614634,114.423358 C478.17884,114.705598 473.993516,115.375907 470.058537,116.434307 C466.123558,117.492706 462.796762,119.045002 460.078049,121.091241 C457.359336,123.13748 456,125.995115 456,129.664234 C456,132.063272 456.53658,134.074201 457.609756,135.69708 C458.682932,137.319959 460.07804,138.695858 461.795122,139.824818 C463.512204,140.953777 465.443892,141.765204 467.590244,142.259124 C469.736596,142.753044 471.882916,143 474.029268,143 C482.900857,143 489.447133,140.918512 493.668293,136.755474 C497.889452,132.592437 500,126.912445 500,119.715328 L500,114 Z M552,57.5121951 L575.945205,57.5121951 L575.945205,73.6321138 L576.365297,73.6321138 C578.745826,68.6076985 582.386581,64.2462922 587.287671,60.5477642 C592.188761,56.8492362 598.840141,55 607.242009,55 C613.963504,55 619.669687,56.11652 624.360731,58.3495935 C629.051774,60.582667 632.867565,63.513532 635.808219,67.1422764 C638.748873,70.7710209 640.849309,74.9579709 642.109589,79.703252 C643.369869,84.4485332 644,89.4030907 644,94.5670732 L644,158 L618.794521,158 L618.794521,107.128049 C618.794521,104.336707 618.654492,101.231386 618.374429,97.8119919 C618.094367,94.3925981 617.359214,91.1826031 616.16895,88.1819106 C614.978685,85.1812181 613.1233,82.6690481 610.60274,80.6453252 C608.082179,78.6216023 604.651468,77.6097561 600.310502,77.6097561 C596.109568,77.6097561 592.573835,78.3075811 589.703196,79.703252 C586.832558,81.098923 584.452064,82.9830505 582.561644,85.3556911 C580.671223,87.7283316 579.30594,90.4498491 578.465753,93.5203252 C577.625567,96.5908013 577.205479,99.8007963 577.205479,103.150407 L577.205479,158 L552,158 L552,57.5121951 Z M777,57.5245902 L777,149.461749 C777,158.57837 775.877746,166.818269 773.633205,174.181694 C771.388663,181.545119 767.91669,187.786404 763.217181,192.905738 C758.517673,198.025071 752.590769,201.987236 745.436293,204.79235 C738.281818,207.597464 729.794772,209 719.974903,209 C710.575886,209 701.667996,207.807844 693.250965,205.423497 C684.833935,203.03915 677.048298,198.691288 669.893822,192.379781 L685.044402,171.762295 C690.09462,176.390734 695.355185,179.9672 700.826255,182.491803 C706.297325,185.016406 712.610003,186.278689 719.764479,186.278689 C725.796684,186.278689 730.881897,185.437167 735.02027,183.754098 C739.158644,182.07103 742.455264,179.756845 744.910232,176.811475 C747.365199,173.866105 749.118721,170.324702 750.170849,166.187158 C751.222978,162.049615 751.749035,157.456309 751.749035,152.407104 L751.749035,145.043716 L751.328185,145.043716 C747.680805,149.952666 742.841086,153.634323 736.80888,156.088798 C730.776675,158.543273 724.604279,159.770492 718.291506,159.770492 C710.716178,159.770492 703.842373,158.403019 697.669884,155.668033 C691.497395,152.933046 686.20176,149.251389 681.782819,144.622951 C677.363878,139.994512 673.962045,134.524622 671.57722,128.213115 C669.192395,121.901608 668,115.169435 668,108.016393 C668,100.582841 669.122254,93.6402873 671.366795,87.1885246 C673.611337,80.7367619 676.907958,75.1266177 681.256757,70.3579235 C685.605556,65.5892293 690.831051,61.8374454 696.933398,59.102459 C703.035745,56.3674727 710.014761,55 717.870656,55 C725.025132,55 731.688515,56.4025361 737.861004,59.2076503 C744.033493,62.0127645 748.943354,66.5008799 752.590734,72.6721311 L753.011583,72.6721311 L753.011583,57.5245902 L777,57.5245902 Z M723,79 C718.492935,79 714.408469,79.7322622 710.746479,81.1968085 C707.084489,82.6613548 703.950717,84.6837932 701.34507,87.2641844 C698.739424,89.8445755 696.69719,92.982842 695.21831,96.679078 C693.739429,100.375314 693,104.45506 693,108.91844 C693,112.963377 693.739429,116.729297 695.21831,120.216312 C696.69719,123.703327 698.774635,126.771854 701.450704,129.421986 C704.126774,132.072117 707.295756,134.164295 710.957746,135.698582 C714.619737,137.232868 718.563359,138 722.788732,138 C727.436643,138 731.626742,137.232868 735.359155,135.698582 C739.091568,134.164295 742.26055,132.106987 744.866197,129.526596 C747.471844,126.946205 749.478866,123.842808 750.887324,120.216312 C752.295782,116.589816 753,112.684418 753,108.5 C753,99.712722 750.32397,92.599318 744.971831,87.1595745 C739.619692,81.719831 732.295821,79 723,79 Z M806,58 L831,58 L831,158 L806,158 L806,58 Z M803,23 C803,18.9722021 804.489163,15.4652927 807.467532,12.4791667 C810.445902,9.49304063 814.220756,8 818.792208,8 C823.363659,8 827.207777,9.42359688 830.324675,12.2708333 C833.441574,15.1180698 835,18.6944229 835,23 C835,27.3055771 833.441574,30.8819302 830.324675,33.7291667 C827.207777,36.5764031 823.363659,38 818.792208,38 C814.220756,38 810.445902,36.5069594 807.467532,33.5208333 C804.489163,30.5347073 803,27.0277979 803,23 Z M861,57.5121951 L886.016287,57.5121951 L886.016287,73.4227642 L886.433225,73.4227642 C889.212826,67.5609463 893.173699,63.0250838 898.315961,59.8150407 C903.458223,56.6049975 909.364787,55 916.035831,55 C917.564611,55 919.058625,55.139565 920.517915,55.4186992 C921.977206,55.6978334 923.471219,56.0467459 925,56.4654472 L925,80.75 C922.915299,80.1917316 920.865374,79.7381454 918.850163,79.3892276 C916.834952,79.0403099 914.854516,78.8658537 912.908795,78.8658537 C907.071632,78.8658537 902.381125,79.9474824 898.837134,82.1107724 C895.293142,84.2740623 892.583071,86.7513411 890.70684,89.5426829 C888.83061,92.3340248 887.579808,95.1253248 886.954397,97.9166667 C886.328987,100.708009 886.016287,102.801484 886.016287,104.197154 L886.016287,158 L861,158 L861,57.5121951 Z M942,0 L967,0 L967,159 L942,159 L942,0 Z M1050.98731,86.4960317 C1046.07189,79.625627 1039.47128,76.1904762 1031.18528,76.1904762 C1027.8147,76.1904762 1024.5144,77.0317376 1021.28426,78.7142857 C1018.05413,80.3968338 1016.43909,83.1309335 1016.43909,86.9166667 C1016.43909,90.0013382 1017.77325,92.244702 1020.44162,93.6468254 C1023.11,95.0489488 1026.48052,96.2407358 1030.5533,97.2222222 C1034.62608,98.2037086 1039.01478,99.2202328 1043.71954,100.271825 C1048.4243,101.323418 1052.81301,102.935836 1056.88579,105.109127 C1060.95857,107.282418 1064.32909,110.261886 1066.99746,114.047619 C1069.66583,117.833352 1071,123.021131 1071,129.611111 C1071,135.640242 1069.70094,140.722863 1067.10279,144.859127 C1064.50464,148.995391 1061.13412,152.325384 1056.99112,154.849206 C1052.84812,157.373028 1048.17854,159.195762 1042.98223,160.31746 C1037.78593,161.439159 1032.5897,162 1027.3934,162 C1019.52873,162 1012.29614,160.878318 1005.69543,158.634921 C999.094722,156.391523 993.196303,152.325426 988,146.436508 L1004.85279,130.662698 C1008.08293,134.308219 1011.55878,137.287687 1015.28046,139.60119 C1019.00213,141.914694 1023.53128,143.071429 1028.86802,143.071429 C1030.69375,143.071429 1032.58967,142.861113 1034.55584,142.440476 C1036.52201,142.019839 1038.34771,141.318788 1040.03299,140.337302 C1041.71828,139.355815 1043.08756,138.128976 1044.14086,136.656746 C1045.19417,135.184516 1045.72081,133.466941 1045.72081,131.503968 C1045.72081,127.99866 1044.38665,125.40477 1041.71827,123.722222 C1039.0499,122.039674 1035.67938,120.672624 1031.6066,119.621032 C1027.53382,118.569439 1023.14512,117.587968 1018.44036,116.676587 C1013.73559,115.765207 1009.34689,114.293 1005.27411,112.259921 C1001.20133,110.226842 997.830809,107.387584 995.162437,103.742063 C992.494064,100.096543 991.159898,95.048974 991.159898,88.5992063 C991.159898,82.9907127 992.318516,78.1184069 994.635787,73.9821429 C996.953057,69.8458788 1000.0076,66.4457805 1003.79949,63.781746 C1007.59139,61.1177115 1011.94498,59.1547682 1016.86041,57.8928571 C1021.77583,56.6309461 1026.7614,56 1031.81726,56 C1038.55841,56 1045.22924,57.1567345 1051.82995,59.4702381 C1058.43066,61.7837417 1063.76732,65.744681 1067.8401,71.3531746 L1050.98731,86.4960317 Z" id="triangirls" fill="#0B48D8"></path>
                <g id="logo" transform="translate(0.000000, 29.000000)">
                    <path d="M38.1791564,120.220845 C40.3966015,121.670262 43.3940393,121.038368 44.8404505,118.816315 L108.222447,21.4542927 C109.668858,19.2325289 109.038275,16.2285722 106.821119,14.7791551 C104.603674,13.329738 101.606236,13.9616317 100.159536,16.1836851 L36.7775392,113.545707 C35.3311281,115.767471 35.9617113,118.771428 38.1791564,120.220845" id="Fill-1" fill="#B5DCBB"></path>
                    <path d="M173.820769,121.220918 C171.603613,122.670336 168.605886,122.038152 167.159475,119.816387 L103.77748,22.4542978 C102.331069,20.2322429 102.961941,17.2285737 105.178808,15.7791556 C107.396253,14.3297375 110.393691,14.9616317 111.840391,17.1836866 L175.222675,114.545486 C176.668798,116.767541 176.038214,119.771499 173.820769,121.220918" id="Fill-3" fill="#B5DCBB"></path>
                    <g id="Group-7">
                        <mask id="mask-2" fill="white">
                            <use xlink:href="#path-1"></use>
                        </mask>
                        <g id="Clip-6"></g>
                        <path d="M181.646932,103.579367 C165.285907,79.7015492 122.310025,12.9733425 117.963147,6.83259639 C113.616269,0.691560916 109.395232,0.318307252 106.017878,0.233818826 C102.746894,0.151934495 83.0343816,0.151934495 79.7639784,0.233818826 C76.3863347,0.318307252 72.1652972,0.691560916 67.8181284,6.83259639 C63.4712503,12.9733425 20.4956597,79.7015492 4.13463469,103.579367 C-7.05384656,119.908781 7.28413781,131.404705 13.9624097,131.53028 C25.9161066,131.754811 34.3834659,131.614479 41.2834847,131.53028 C44.2074628,131.494691 50.2893722,129.763256 53.4734597,125.046661 C67.0192003,104.980371 92.8909284,65.7279737 92.8909284,65.7279737 C92.8909284,65.7279737 118.762075,104.980371 132.308107,125.046661 C135.492194,129.763256 141.574103,131.494691 144.497791,131.53028 C151.3981,131.614479 159.865169,131.754811 171.819447,131.53028 C178.497428,131.404705 192.835413,119.908781 181.646932,103.579367" id="Fill-5" fill="#0B48D8" mask="url(#mask-2)"></path>
                    </g>
                    <path d="M13.1791586,120.220845 C15.3963169,121.670262 18.3940467,121.038368 19.8404593,118.816315 L83.2225191,21.4542927 C84.6689317,19.2325289 84.0380588,16.2285722 81.8211895,14.7791551 C79.6037422,13.329738 76.6063014,13.9616317 75.1595998,16.1836851 L11.77754,113.545707 C10.3311274,115.767471 10.9617113,118.771428 13.1791586,120.220845" id="Fill-8" fill="#F5C8C5"></path>
                    <path d="M149.808098,121.221638 C147.577683,122.669742 144.562712,122.038131 143.107841,119.81809 L101,55.7771612 C102.90921,52.863882 103.670219,51.7583463 106.752628,47 L151.217913,114.552257 C152.672784,116.772297 152.038513,119.773244 149.808098,121.221638" id="Fill-10" fill="#F5C8C5"></path>
                    <path d="M175.215558,113.542582 L111.2709,16.142386 C110.639967,15.1811369 109.269933,14.0451943 107.925556,14.0130368 C107.389962,13.9956544 104.610242,13.9956544 104.074357,14.0130368 C102.730271,14.0451943 101.360237,15.1811369 100.729012,16.142386 L36.784354,113.542582 C35.3251026,115.765507 35.9615753,118.770351 38.1987053,120.220627 C40.4355438,121.670612 43.4598824,121.038181 44.9191337,118.815256 L106.000102,25.7771839 L167.08107,118.815256 C168.540322,121.038181 171.56466,121.670612 173.801499,120.220627 C176.038629,118.770351 176.67481,115.765507 175.215558,113.542582" id="Fill-12" fill="#BDE9C3"></path>
                    <path d="M112,112.500144 C112,123.269779 103.269779,132 92.500144,132 C81.7305093,132 73,123.269779 73,112.500144 C73,101.730221 81.7305093,93 92.500144,93 C103.269779,93 112,101.730221 112,112.500144" id="Fill-14" fill="#0B48D8"></path>
                    <path d="M101,112.499859 C101,117.194258 97.19454,121 92.5001412,121 C87.8057425,121 84,117.194258 84,112.499859 C84,107.80546 87.8057425,104 92.5001412,104 C97.19454,104 101,107.80546 101,112.499859" id="Fill-16" fill="#F5C8C5"></path>
                </g>
                <circle id="Oval" fill="#F5C8C5" cx="397" cy="23" r="10"></circle>
                <path d="M417,23.500144 C417,34.2697787 408.269779,43 397.500144,43 C386.730509,43 378,34.2697787 378,23.500144 C378,12.7302213 386.730509,4 397.500144,4 C408.269779,4 417,12.7302213 417,23.500144" id="Fill-14" fill="#0B48D8"></path>
                <path d="M406,23.4998588 C406,28.1942575 402.19454,32 397.500141,32 C392.805742,32 389,28.1942575 389,23.4998588 C389,18.80546 392.805742,15 397.500141,15 C402.19454,15 406,18.80546 406,23.4998588" id="Fill-16" fill="#F5C8C5"></path>
                <path d="M838,23.500144 C838,34.2697787 829.269779,43 818.500144,43 C807.730509,43 799,34.2697787 799,23.500144 C799,12.7302213 807.730509,4 818.500144,4 C829.269779,4 838,12.7302213 838,23.500144" id="Fill-14" fill="#0B48D8"></path>
                <path d="M827,23.4998588 C827,28.1942575 823.19454,32 818.500141,32 C813.805742,32 810,28.1942575 810,23.4998588 C810,18.80546 813.805742,15 818.500141,15 C823.19454,15 827,18.80546 827,23.4998588" id="Fill-16" fill="#F5C8C5"></path>
            </g>
        </g>
    </g>
</svg>